<svg width="128pt" height="128pt" viewBox="0 0 45.156 45.156" xmlns="http://www.w3.org/2000/svg"><path style="fill:#021119" d="M914 1844.415c-.825-.193-13.2-.804-27.5-1.357-43.54-1.682-71.78-4.997-115.408-13.545-38.64-7.57-45.741-9.236-81.592-19.14-97.54-26.946-193.719-73.224-280-134.728-44.728-31.883-77.095-59.124-113-95.105-70.791-70.94-128.552-150.786-172.477-238.424-8.543-17.045-21.824-46.099-29.537-64.616-27.79-66.716-50.223-151.67-59.415-225-4.916-39.217-6.434-66.429-6.473-116-.039-49.203 1.076-71.52 5.445-109 10.259-88.005 37.168-181.887 77.266-269.568 25.593-55.963 58.161-110.869 93.893-158.293 52.438-69.596 89.437-108.85 152.722-162.026 70.758-59.457 163.466-113.393 257.97-150.084 54.695-21.235 130.262-40.653 188.99-48.563 56.131-7.56 76.07-8.916 131.116-8.923 54.298-.007 83.951 2.029 131.5 9.025 78.977 11.621 166.237 36.398 228.189 64.793 16.433 7.532 73.925 36.251 86.311 43.115 44.85 24.856 105.58 68.119 149.5 106.504 36.494 31.894 79.923 77.453 110.874 116.314 37.634 47.253 71.62 97.937 94.316 140.658 57.347 107.943 92.633 226.41 102.774 345.048 2.982 34.887 3.516 47.337 3.519 82 0 21.704-.57 42.598-1.505 55-.83 11-1.964 26.075-2.522 33.5-1.781 23.711-7.886 62.255-15.84 100-6.74 31.987-10.32 45.574-22.264 84.5-12.14 39.566-33.336 92.522-51.757 129.31-13.647 27.254-35.193 65.415-47.817 84.69-39.055 59.632-78.073 108.219-122.832 152.956-53.658 53.633-102.779 92.591-167.946 133.2-36.772 22.916-67.737 38.927-121 62.566-33.77 14.988-92.223 34.195-142.088 46.688-32.642 8.179-86.31 17.044-127.412 21.046-22.883 2.229-100.465 4.76-106 3.46zM965.5 1592c24.06-1.144 40.452-2.9 66-7.07 82.984-13.548 148.236-40.271 211.007-86.417 22.915-16.847 45.353-37.528 70.228-64.73 45.822-50.11 82.397-116.202 110.005-198.782 4.137-12.375 8.25-23.244 9.141-24.153 1.505-1.536 2.357-1.512 12.119.345 14.099 2.68 32.294 2.968 36.662.578 9.767-5.344 12.196-19.845 4.145-24.741-3.461-2.105-6.592-2.604-25.447-4.052-26.222-2.014-36.966-9.16-51.86-34.494-3.85-6.549-8.04-13.146-9.31-14.66-4.654-5.548-14.503-4.647-20.206 1.848-2.951 3.361-3.17 4.088-2.792 9.3.464 6.42 4.784 16.322 12.073 27.674 6.559 10.216 8.735 14.824 8.735 18.497 0 6.68-19.282 51.57-33.53 78.06-21.962 40.83-41.45 68.29-71.18 100.298-21.673 23.332-41.225 39.75-70.29 59.02-58.161 38.56-121.246 62.219-201 75.383-23.23 3.835-40.922 5.2-75 5.785-36.208.622-51.797-.3-88-5.2-90.009-12.185-184.051-52.535-245.317-105.256-12.572-10.818-43.017-42.32-52.445-54.264-31.45-39.847-51.997-74.322-70.058-117.545-8.295-19.851-14.18-35.966-14.18-38.825 0-2.464 4.264-10.345 8.981-16.598 5.36-7.106 12.015-20.527 12.675-25.56.4-3.057-.007-4.704-1.82-7.347-3.213-4.687-8.705-8.917-12.584-9.693-2.84-.568-3.71-.17-7.063 3.226-2.102 2.13-6.238 7.924-9.19 12.874-13.918 23.338-23.196 32.09-37.499 35.377-2.75.632-11.661 1.808-19.803 2.612-23.24 2.296-26.252 3.78-26.125 12.868.107 7.648 3.376 13.29 9.19 15.862 3.96 1.752 5.968 1.972 13.764 1.507 5.02-.3 14.194-1.598 20.388-2.885l11.262-2.341 1.739 2.147c.957 1.181 5.024 11.756 9.039 23.5 28.051 82.054 61.416 142.84 108.079 196.899 69.534 80.557 154.755 128.985 265.467 150.853 22.162 4.378 51.94 8.182 81.5 10.412 10.344.78 42.939.618 62.5-.312zm-356-739.945c18.091-4.912 33.357-14.794 50.353-32.595 20.323-21.286 34.075-47.15 44.672-84.015 12.954-45.063 14.613-84.674 5.401-128.944-13.07-62.815-47.815-108.602-90.743-119.581-20.856-5.334-48.019.3-68.536 14.215-18.504 12.55-37.589 35.45-49.475 59.366-12.7 25.556-18.781 44.93-23.85 76-2.553 15.642-2.772 19.157-2.744 44 .034 30.767 1.217 40.058 8.53 67 9.352 34.454 22.01 58.477 40.892 77.6 14.285 14.469 28.534 22.887 47.35 27.974 9.506 2.57 26.611 2.113 38.15-1.02zm683.119 1.407c11.318-1.96 26.675-7.191 33.946-11.562 34.106-20.5 61.67-71.72 68.826-127.899 3.536-27.76 2.967-51.122-1.986-81.462-6.59-40.372-20.161-73.082-42.665-102.83-16.527-21.849-40.45-37.97-64.137-43.223-12.499-2.772-26.997-1.711-41.372 3.026-12.519 4.126-19.67 8.298-31.751 18.526-13.936 11.797-23.549 25.015-34.52 47.463-15.631 31.988-22.168 62.096-22.361 103-.166 35.187 5.414 67.143 17.11 97.979 21.151 55.771 54.134 89.54 94.791 97.048 9.482 1.75 13.7 1.74 24.119-.066z" transform="matrix(.01867 0 0 .01867 4.758 4.73)"/><path style="fill:#021119" d="M921 1844.416c-1.375-.197-14.875-.828-30-1.404-33.203-1.262-61.18-3.831-86-7.896-32.466-5.317-76.664-14.845-105-22.635-33.825-9.3-35.937-9.942-59.5-18.123-78.694-27.32-155.017-66.341-223.5-114.267-66.03-46.21-114.758-90.285-168.143-152.091-17.84-20.655-22.82-26.87-40.805-50.936-46.758-62.563-82.84-127.084-115.609-206.731C66.088 1206.275 44.036 1121.19 35.08 1049c-4.586-36.964-6.327-67.216-6.417-111.5-.152-74.614 5.162-124.317 20.854-195.036 27.399-123.485 83.838-246.657 157.797-344.376 51.474-68.01 89.269-108.017 151.075-159.919 39.4-33.085 91.887-68.603 140.611-95.15 40.17-21.885 65.353-33.839 106.5-50.553 46.187-18.76 112.678-37.87 164.988-47.415 37.905-6.917 86.224-12.729 117.012-14.073 41.146-1.797 102.102-.834 127 2.007 45.819 5.228 60.677 7.373 93.933 13.564 55.488 10.33 131.083 33.388 180.067 54.926 18.701 8.222 66.074 31.593 86.5 42.673 45.78 24.834 91.885 56.645 141 97.287 52.12 43.127 103.911 98.125 146.027 155.065 42.176 57.02 66.326 96.389 91.023 148.38 21.658 45.593 35.572 80.908 48.978 124.308 23.85 77.21 35.87 145.832 40.078 228.812 1.227 24.188.648 78.779-1.034 97.5-.543 6.05-1.448 17.525-2.01 25.5-.908 12.864-3.528 33.414-7.14 56-2.298 14.375-11.071 57.618-15.013 74-4.52 18.787-17.771 63.694-24.584 83.31-11.822 34.042-31.682 81.37-45.423 108.249-17.295 33.831-35.023 64.613-51.222 88.941-51.251 76.967-99.338 132.054-168.18 192.664-57.725 50.822-136.387 101.87-205.5 133.36a8378.413 8378.413 0 0 0-24 10.992c-51.343 23.63-131.617 48.414-194.087 59.922-53.423 9.842-87.309 13.53-137.913 15.014-10.725.315-24.675.74-31 .946-6.325.206-12.625.214-14 .017zm50-252.42c64.73-3.265 132.926-18.81 185.852-42.365 35.265-15.695 77.293-41.843 106.12-66.024 10.728-9 44.958-42.964 56.544-56.107 42.523-48.232 79.66-117.558 105.607-197.144 3.254-9.979 6.554-18.673 7.335-19.321 1.099-.912 3.416-.786 10.231.556 5.593 1.1 13.923 1.766 22.811 1.822 13.025.08 14.221-.07 17.18-2.18 5.496-3.921 7.616-8.46 7.125-15.251-.737-10.194-2.982-11.318-25.808-12.923-7.977-.561-16.977-1.747-20-2.635-15.214-4.47-24.64-13.088-36.594-33.46-4.193-7.146-8.76-13.886-10.148-14.978-3.18-2.5-12.207-2.726-16.1-.402-4.81 2.87-6.664 6.383-6.559 12.416.13 7.42 3.095 14.607 11.614 28.145 10.334 16.422 10.438 16.855 6.663 27.572-12.427 35.274-38.212 85.656-60.063 117.362-41.803 60.655-93.539 105.29-161.31 139.17-43.543 21.768-92.7 37.067-151.5 47.15-26.406 4.528-46.495 5.982-83.5 6.044-35.184.059-41.324-.347-76.5-5.063-62.212-8.34-131.655-31.524-184-61.427-32.79-18.733-56.17-36.282-81.868-61.453-46.45-45.498-78.721-93.502-104.944-156.106-10.767-25.705-13.617-34.296-12.806-38.615.353-1.885 3.615-7.668 7.247-12.853 8.84-12.616 13.371-22.35 13.371-28.72 0-4.314-.491-5.483-3.966-9.43-4.525-5.14-8.343-7.062-13.114-6.598-4.04.392-8.334 5.477-17.79 21.064-11.423 18.828-20.21 26.466-34.63 30.103-3.3.832-13.155 2.24-21.9 3.13-21.346 2.17-23.6 3.366-23.6 12.523 0 7.16 3.136 13.503 8.025 16.229 3.109 1.733 4.845 1.878 16.475 1.377 7.15-.307 16.6-1.395 21-2.416 4.4-1.022 8.572-1.666 9.271-1.432 2.043.683 3.885 5.06 11.369 27.017 14.881 43.663 33.217 85.155 51.14 115.727 25.8 44.009 59.606 86.84 92.22 116.84 52.752 48.525 114.783 82.957 184.763 102.56 28.059 7.86 63.485 14.735 88.237 17.126 6.6.637 17.85 1.736 25 2.442 16.06 1.585 55.495 1.841 81.5.529zM610.5 852.614c9.07-2.502 24.144-10.093 32.078-16.154 8.125-6.207 22.74-21.05 29.779-30.242 18.73-24.462 34.368-65.216 40.82-106.389 3.204-20.438 3.216-57.874.026-78.328-4.432-28.42-10.545-48.38-21.317-69.595-14.662-28.879-37.199-51.914-60.437-61.773-10.354-4.393-17.313-5.416-33.614-4.941-13.207.385-15.122.691-24.335 3.895-33.425 11.623-62.238 43.022-80.94 88.203-7.523 18.172-11.29 32.056-15.254 56.211-2.62 15.969-2.788 18.82-2.76 47 .027 26.547.286 31.428 2.256 42.412 6.166 34.382 17.233 63.672 32.505 86.027 6.814 9.975 22.288 25.39 31.884 31.763 7.504 4.983 18.667 9.898 29.121 12.822 7.026 1.964 31.797 1.403 40.188-.911zm687.637.359c11.473-2.338 22.789-6.582 30.197-11.326 18.306-11.722 35.059-32.034 47.221-57.253 20.999-43.54 27.125-94.173 18.378-151.893-5.079-33.517-15.133-61.17-31.77-87.382-17.4-27.413-31.582-40.757-55.42-52.138-13.351-6.375-20.332-7.947-35.365-7.965-20.353-.025-35.438 4.906-51.378 16.794-31.463 23.466-55.177 69.434-61.49 119.191-11.57 91.195 20.067 183.684 74.986 219.217 20.604 13.331 41.542 17.462 64.641 12.755z" transform="matrix(.01867 0 0 .01867 4.758 4.73)"/><path style="fill:#021119" d="M915.5 1843.393c-1.1-.184-13.7-.792-28-1.35-44.005-1.72-71.748-4.98-115.877-13.617-35.906-7.027-44.067-8.921-75.449-17.507-69.278-18.953-130.417-43.795-196.174-79.71-82.433-45.021-162.141-106.844-223.963-173.709-63.034-68.175-108.66-133.076-148.783-211.636-15.063-29.493-35.35-76.014-45.73-104.864-20.262-56.313-38.023-130.35-45.459-189.5-4.743-37.73-6.362-66.527-6.434-114.5-.107-69.788 3.584-110.57 15.475-171 20.49-104.132 60.864-208.557 115.218-298 25.363-41.738 70.27-101.932 103.698-139 16.952-18.798 55.665-57.052 71.402-70.553 37.652-32.306 48.96-41.204 79.576-62.613 76.068-53.193 165.317-97.737 245.214-122.386C728.39 52.416 767.6 44.223 841.937 35.476c28.182-3.317 52.085-4.448 94.063-4.453 42.675-.005 66.27 1.186 98.635 4.978 82.743 9.694 159.515 28.456 230.657 56.37 28.45 11.162 78.053 34.913 114.208 54.683 46.883 25.636 105.601 67.522 153.5 109.5 17.446 15.288 61.84 59.71 78.897 78.946 45.458 51.265 93.45 119.091 122.407 173 40.834 76.018 72.747 164.028 89.565 247 13.048 64.377 18.687 124.829 17.863 191.5-.83 67.195-5.856 112.775-19.625 178-6.47 30.643-8.616 38.989-18.647 72.5-11.905 39.766-24.436 73.675-41.143 111.331-12.79 28.829-35.684 72.264-54.068 102.582-5.59 9.221-28.716 43.302-40.092 59.087-42.244 58.617-103.002 122.817-161.657 170.817-50.295 41.16-115.285 82.66-171.5 109.517-47.871 22.87-67.574 30.991-108.226 44.604-70.741 23.688-137.602 37.98-208.367 44.541-23.386 2.168-95.96 4.576-102.907 3.414zm52-250.415c58.387-2.835 117.763-14.977 169.5-34.664 7.975-3.035 23.5-9.929 34.5-15.32 51.554-25.271 94.089-56.835 133.519-99.08 19.145-20.513 22.351-24.225 31.324-36.258 37.77-50.654 64.698-103.815 88.104-173.93 3.998-11.977 7.574-22.08 7.948-22.454.373-.373 5.725.19 11.892 1.253 15.202 2.618 31.855 2.65 37.052.069 5.584-2.773 9.161-8.677 9.161-15.12 0-6.14-1.884-10.104-5.754-12.105-1.554-.804-8.095-1.907-14.535-2.452-21.844-1.85-27.385-2.81-33.962-5.888-11.117-5.202-19.346-14.483-31.852-35.924-2.855-4.893-6.148-9.167-7.897-10.246-5.934-3.662-14.868-1.776-19.898 4.202-2.571 3.056-2.773 3.881-2.417 9.887.454 7.64 4.121 15.924 13.749 31.052 7.446 11.701 8.002 14.152 5.059 22.291-9.12 25.22-26.916 63.033-41.988 89.209-27.251 47.33-69.845 95.933-110.32 125.885-24.225 17.928-46.203 31.138-75.185 45.193-28.943 14.035-53.698 23.024-88.093 31.987-48.154 12.55-82.255 17.198-132.907 18.116-34.53.626-50.093-.31-86.5-5.207-96.93-13.035-195.556-57.397-256.5-115.373-41.737-39.704-72.579-81.237-96.983-130.601-11.185-22.622-24.48-54.025-27.166-64.163-1.71-6.457-1.305-7.578 7.282-20.11 7.961-11.617 12.45-20.784 13.13-26.811.634-5.633-2.795-11.212-9.508-15.47-9.276-5.882-12.217-3.937-24.804 16.402-9.72 15.706-17.285 24.239-25.125 28.339-7.655 4.003-11.734 4.901-30.826 6.79-23.621 2.335-27.845 5.07-26.074 16.878.762 5.078 3.718 9.96 7.906 13.053 4.126 3.047 22.081 2.876 36.605-.348l10.437-2.317 1.654 2.043c.91 1.124 4.71 10.969 8.446 21.878 16.202 47.315 34.87 89.4 53.756 121.191 35.398 59.582 76.48 106.757 124.38 142.826 59.494 44.798 125.797 72.821 206.39 87.23 16.945 3.03 47.086 6.596 71 8.4 10.497.792 46.044.61 65.5-.333zM609 853.51c9.838-2.593 25.532-10.45 34.655-17.35 16.739-12.657 34.445-34.427 44.788-55.064 18.849-37.613 29.779-87.251 28.206-128.096-1.457-37.82-9.32-70.985-23.6-99.535-12.16-24.315-27.639-43.077-45.15-54.728C631.64 487.918 619.294 484 601.47 484c-29.435 0-57.01 14.472-78.544 41.223-10.626 13.199-16.742 22.45-22.672 34.298-12.046 24.063-19.162 46.571-23.861 75.479-2.65 16.3-2.844 19.42-2.818 45.5.032 31.873 1.153 40.808 8.534 68 6.76 24.906 14.108 41.582 26.587 60.336 11.249 16.906 31.298 33.945 47.64 40.487 13.782 5.518 20.123 6.702 33.665 6.285 7.377-.226 15.164-1.086 19-2.098zm691.863-.507c25.018-6.063 43.088-18.943 59.917-42.706 22.067-31.157 34.24-68.472 37.385-114.597 2.49-36.526-4.706-84.038-17.547-115.85-6.724-16.656-18.054-36.606-29.163-51.35-6.677-8.863-19.107-20.905-27.221-26.374-9.45-6.367-25.701-13.873-35.197-16.254-11.821-2.964-29.672-2.269-42.037 1.637-31.603 9.984-56.357 36.004-74.005 77.793-12.334 29.202-17.44 56.73-17.475 94.198-.04 42.905 8.334 81.361 25.556 117.354 18.303 38.253 43.93 64.3 72.995 74.192 15.588 5.305 30.42 5.925 46.792 1.957z" transform="matrix(.01867 0 0 .01867 4.758 4.73)"/><path style="fill:#021119" d="M905 1842.95c-66.86-3.233-86.869-5.554-141.259-16.384-30.334-6.04-33.854-6.875-66.241-15.71-29.54-8.06-35.553-9.915-59.483-18.358-48.905-17.254-90.208-35.728-137.017-61.285-73.082-39.902-145.914-94.151-203.01-151.213-47.288-47.26-95.605-107.641-129.232-161.5-32.333-51.785-63.687-115.374-84.561-171.5-21.382-57.489-40.381-135.477-48.116-197.5-9.852-79.01-8.9-170.856 2.545-245.5 3.172-20.688 11.184-60.326 16.458-81.426 29.234-116.954 81.65-228.58 150.689-320.91C258.48 331.175 298.678 288.668 363 235.4c38.03-31.495 89.148-65.809 136.5-91.627 39.982-21.801 64.672-33.518 106-50.306 58.733-23.857 138.17-44.85 202.498-53.515C860.853 32.832 887.11 31.03 938 31.023c48.711-.006 84.667 2.703 132.5 9.984 80.601 12.268 163.127 36.26 229.498 66.717 81.478 37.39 136.12 70.79 202.409 123.722 26.266 20.974 44.279 37.16 70.123 63.015 45.897 45.915 77.043 83.793 117.203 142.539 26.78 39.173 42.345 66.101 61.85 107 22.139 46.423 35.805 81.014 49.35 124.907 19.889 64.45 31.448 121.944 37.014 184.093 2.914 32.547 4.044 56.917 4.033 87-.01 23.87-.646 37.08-3.964 82.183-3.095 42.068-16.373 111.803-30.62 160.817-16.574 57.017-39.603 116.74-61.618 159.8-42.146 82.437-92.641 154.151-154.829 219.893-21.694 22.934-60.63 58.925-85.949 79.449-46.667 37.828-107.408 77.031-160.702 103.72-16.364 8.194-58.75 27.446-71.798 32.61-52.98 20.968-119 40.094-170.556 49.408-53.938 9.745-83.938 13-134.444 14.587-39.871 1.253-45.675 1.298-62.5.484zm65.5-249.977c52.697-2.635 107.091-13.145 155-29.949 53.077-18.617 109.494-52.208 149-88.715 24.188-22.352 49.708-49.709 63.237-67.788 36.84-49.228 65.454-106.245 88.271-175.883 3.38-10.318 6.733-18.985 7.45-19.26.717-.275 5.07.224 9.673 1.11 10.368 1.994 26.932 3.03 33.267 2.08 5.756-.864 11.906-5.928 13.662-11.25 1.723-5.222.71-12.87-2.101-15.862-3.115-3.316-6.817-4.144-24.09-5.391-17.36-1.254-25.228-3.412-34.045-9.338-7.747-5.208-14.064-12.937-22.132-27.082-8.043-14.102-10.87-16.645-18.495-16.645-6.947 0-12 2.956-14.67 8.585-3.359 7.077.205 18.158 11.75 36.534 9.106 14.49 9.222 14.873 6.806 22.353-10.109 31.29-39.157 88.538-60.65 119.528-44.628 64.35-95.492 107.534-167.933 142.577-29.004 14.03-56.639 23.81-94 33.265-71.385 18.066-136.343 21.632-211.5 11.61-66.886-8.918-141.92-35.684-198.911-70.954-24.404-15.102-43.614-30.182-64.968-50.998-18.198-17.74-30.667-31.885-44.933-50.974-25.996-34.784-42.443-63.358-58.722-102.026-11.416-27.114-14.711-36.566-14.17-40.64.312-2.341 3.34-7.93 8.487-15.657 8.82-13.243 12.217-20.961 12.217-27.763 0-3.878-.568-5.101-4.198-9.04-4.981-5.403-8.502-7.4-13.05-7.4-4.432 0-8.804 4.568-16.27 17-17.424 29.013-25.275 34.321-54.71 36.993-16.868 1.53-22.278 2.72-25.782 5.669-2.676 2.252-2.99 3.114-2.99 8.215 0 6.683 2.97 13.393 7.331 16.564 2.536 1.844 4.206 2.05 16 1.968 9.398-.065 15.737-.676 22.135-2.136 4.932-1.124 9.483-1.846 10.115-1.604 1.672.642 2.87 3.61 10.625 26.331 19.33 56.625 42.092 104.218 69.095 144.469 29.428 43.862 65.551 83.463 102.236 112.075 63.172 49.272 137.123 80.24 222.963 93.37 10.655 1.63 38.402 4.692 58 6.4 9.127.797 52.401.588 71-.342zM609.18 853.606c19.03-4.827 33.948-14.479 52.546-33.994 20.407-21.414 33.837-46.875 44.633-84.618 4.883-17.072 6.711-26.627 9.212-48.133 3.145-27.05.566-62.587-6.668-91.861-11.86-47.994-38.963-86.6-72.729-103.591-12.533-6.307-20.14-7.75-38.017-7.206-13.505.41-15.443.717-24.657 3.903-23.967 8.286-43.452 24.644-62.411 52.394-17.462 25.559-28.602 55.429-34.832 93.394-2.544 15.506-2.722 18.594-2.694 46.606.035 33.593 1.072 42.322 8.079 68 9.48 34.741 22.157 58.454 41.765 78.125 14.741 14.79 28.283 22.828 46.905 27.846 8.8 2.37 27.778 1.949 38.868-.865zm693.32-.51c18.27-4.539 30.347-11.589 44.572-26.021 16.681-16.926 29.927-39.447 39.308-66.834 14.433-42.138 16.3-91.598 5.462-144.741-8.448-41.43-34.264-87.46-61.137-109.012-9.666-7.751-30.973-18.725-40.705-20.963-3.822-.88-11.445-1.499-18.5-1.503-14.14-.01-24.726 2.174-36.158 7.456-38.961 18-69.818 69.783-78.077 131.022-2.321 17.216-2.277 57.746.081 74.388 3.488 24.609 7.1 39.224 14.854 60.112 15.328 41.286 39.666 72.995 67.8 88.332 7.312 3.986 19.171 8.184 27.164 9.616 7.83 1.402 26.086.446 35.336-1.852z" transform="matrix(.01867 0 0 .01867 4.758 4.73)"/><path style="fill:#021119" d="M897.5 1841.815c-31.334-1.386-68.818-4.66-89-7.776-20.238-3.124-69.066-12.618-82.759-16.092-72.867-18.486-131.343-39.708-189.241-68.678-61.606-30.824-107.73-59.981-163.375-103.275-67.483-52.503-137.9-128.784-189.272-205.03-25.686-38.124-51.536-84.202-70.385-125.464-26.043-57.008-40.67-97.796-54.565-152.162-14.377-56.245-21.374-97.687-26.06-154.338-2.943-35.572-3.21-106.415-.531-141.5 8.885-116.427 40.567-229.273 94.828-337.762C155.728 472.58 187.21 424.364 234.046 366c22.851-28.474 35.553-42.634 62.432-69.596C339.238 253.512 382 218.48 434.5 183.33c49.643-33.239 109.447-64.48 172-89.852 58.97-23.919 135.895-44.048 202.472-52.98 57.1-7.66 79.634-8.948 143.028-8.177 45.537.554 51.674.931 91 5.59 74.397 8.815 156.753 29.342 222.954 55.572 39.727 15.74 105.111 48.528 141.745 71.08 32.262 19.859 58.445 38.469 92.801 65.958 41.765 33.417 81.826 72.117 120.059 115.98 29.323 33.641 75.436 97.404 97.631 135 23.68 40.112 49.03 93.805 67.139 142.21 9.56 25.555 22.253 66.485 29.085 93.79 22.949 91.718 31.26 190.676 24.105 287-3.054 41.11-7.552 74.241-14.582 107.397-1.12 5.282-2.497 12.078-3.061 15.103-3.884 20.85-19.948 78.719-29.467 106.156-12.009 34.614-33.695 86.041-47.164 111.844-17.35 33.236-36.993 67.303-49.527 85.89-40.135 59.517-74.66 102.057-117.758 145.098-54.677 54.603-103.497 93.263-169.46 134.194-29.66 18.404-62.238 35.404-107 55.833-68.927 31.458-161.327 57.484-243 68.445-29.815 4.002-47.28 5.456-84.461 7.035-37.805 1.605-45.732 1.638-75.539.32zm69-247.816c65.99-3.137 136.195-18.942 190.078-42.79 42.789-18.938 88.221-48.651 121.453-79.43 13.847-12.826 38.204-38.056 48.075-49.8 40.14-47.753 77.726-119.84 101.297-194.277 2.87-9.064 5.282-15.027 6.223-15.389.846-.324 6.113.236 11.706 1.245 14.146 2.551 30.918 2.562 36.034.023 8.575-4.257 12.505-14.563 8.772-23.002-2.693-6.088-6.264-7.561-21.138-8.718-20.62-1.604-26.017-2.627-33.67-6.378-8.849-4.336-17.628-13.436-24.704-25.603-9.004-15.484-11.582-18.964-15.155-20.457-6.995-2.923-13.87-1.15-19.237 4.962-2.777 3.164-3.23 4.421-3.2 8.9.047 7.153 4.04 16.749 12.775 30.71 3.956 6.323 7.47 12.975 7.81 14.784 1.536 8.188-21.044 59.23-43.671 98.717-26.25 45.81-66.533 92.39-105.813 122.354-12.027 9.175-34.486 24.102-47.575 31.619-13.084 7.515-38.58 20.25-52.115 26.031-28.869 12.33-77.624 26.096-116.445 32.877-33.71 5.888-47.538 6.965-90.5 7.049-38.562.075-44.325-.264-77-4.53-36.208-4.726-79.88-15.725-113.5-28.586-52.831-20.21-94.72-43.857-129.914-73.339-12.98-10.873-41.997-40.01-52.753-52.971-20.393-24.573-40.052-53.835-55.091-82-11.566-21.662-31.469-69.858-31.639-76.617-.09-3.564.95-5.677 7.746-15.755 9.569-14.187 14.093-24.298 13.35-29.835-.656-4.89-4.66-10.179-10.526-13.899-9.187-5.826-12.645-3.546-25.173 16.595-10.329 16.605-16.882 24.103-24.715 28.278-7.35 3.918-11.228 4.785-29.853 6.675-20.262 2.056-24.219 3.311-26.922 8.538-4.428 8.562 2.135 22.48 11.85 25.131 5.502 1.501 19.478.546 32.466-2.22 8.826-1.88 10.497-1.993 11.674-.792.755.77 4.29 9.95 7.854 20.4 13.144 38.53 20.425 56.475 36.108 89 23.997 49.767 60.326 100.632 99.863 139.823 61.209 60.67 140.3 101.93 232.175 121.12 35.496 7.414 79.068 12.23 112.5 12.435 10.725.066 28.95-.33 40.5-.879zm-355.218-740.4c18.432-5.476 33.719-15.452 50.139-32.72 19.718-20.739 33.402-46 44.082-81.379 8.856-29.335 11.898-49.407 11.897-78.5 0-24.88-2.243-43.497-7.898-65.563-14.837-57.888-49.288-100.387-89.652-110.594-11.714-2.962-30.557-2.23-42.85 1.665-27.243 8.632-48.743 26.504-68.56 56.992-12.56 19.32-24.245 48.286-29.854 74-4.762 21.83-6.073 35.353-6.06 62.5.015 29.029.983 37.887 6.61 60.5 9.559 38.41 23.466 66.039 43.344 86.106 14.597 14.737 28.667 22.915 49.02 28.494 10.087 2.765 27.653 2.102 39.782-1.5zm690.85.02c17.974-4.56 31.946-12.53 44.914-25.624 17.495-17.663 31-41.15 40.826-70.995 8.189-24.874 11.38-46.001 11.477-76 .169-51.459-11.627-97.032-34.813-134.5-17.701-28.606-32.74-43.033-56.88-54.564-13.802-6.593-23.29-8.936-36.188-8.936-30.785 0-60.582 17.604-80.804 47.74-14.407 21.469-25.153 47.077-31.13 74.186-5.133 23.274-6.613 65.445-3.163 90.074 9.64 68.821 39.302 124.183 79.498 148.38 8.777 5.283 24.43 11.116 33.78 12.588 8.61 1.354 21.58.416 32.482-2.35z" transform="matrix(.01867 0 0 .01867 4.758 4.73)"/><path style="fill:#021119" d="M920 1842.433c-1.375-.202-14.664-.83-29.53-1.397-47.036-1.792-73.73-5.023-124.652-15.09-31.172-6.163-36.147-7.318-62.818-14.584-31.574-8.603-40.94-11.457-63.153-19.248-49.298-17.292-90.034-35.439-137.847-61.41-82.478-44.8-163.018-107.152-225.02-174.204-81.091-87.696-135.672-173.03-181.65-284-27.379-66.078-49.802-152.698-58.766-227-9.307-77.154-8.15-168.372 3.062-241.5 22.103-144.157 82.547-289.736 166.702-401.5 34.167-45.376 56.083-70.903 90.66-105.6C341.12 252.619 382.808 218.51 437 182.344c56.36-37.612 137.922-78.396 198.802-99.41 57.018-19.679 119.204-34.845 172.083-41.967 52.983-7.135 79.193-8.937 130.115-8.943 60.312-.008 109.267 4.797 172.894 16.968 56.098 10.732 128.735 33.012 177.606 54.478 16.485 7.24 68.403 32.92 87.793 43.423 47.639 25.805 107.604 68.384 154.974 110.04 25.63 22.539 65.75 63.222 89.94 91.204 29.468 34.083 72.394 93.495 95.997 132.864 31.665 52.815 62.986 123.97 82.797 188.095C1828.06 759.92 1841.015 845.56 1840.98 940c-.01 25.08-.434 35.013-3.018 70.5-2.147 29.495-7.997 70.962-14.015 99.349-1.126 5.308-2.506 12.126-3.068 15.151-4.247 22.875-20.889 81.955-31.69 112.5-18.174 51.403-37.226 93.562-63.796 141.173-16.938 30.35-21.142 37.19-37.694 61.327-38.96 56.815-68.688 93.014-111.689 136.006-43.272 43.263-88.854 81.174-133.274 110.845-49.432 33.018-79.627 49.763-138.736 76.936-88.196 40.546-207.366 70.593-302 76.146-24.718 1.45-78.069 3.077-82 2.5zm50.5-248.46c55.769-2.788 115.307-14.814 163.5-33.023 52.825-19.96 105.53-52.447 145.5-89.685 22.622-21.076 44.148-44.392 57.791-62.598 37.574-50.136 66.847-107.92 88.753-175.187 3.4-10.439 6.736-19.57 7.415-20.291 1.017-1.08 2.805-1.001 10.138.445 5.692 1.122 13.797 1.775 22.472 1.81 13.09.054 13.711-.038 17.629-2.628 7.338-4.851 10.394-15.605 6.667-23.459-2.776-5.85-5.889-6.813-26.914-8.331-21.21-1.532-28.712-4.269-39.143-14.286-6.196-5.95-9.482-10.582-18.889-26.635-5.802-9.902-8.743-12.096-16.219-12.101-6.123 0-9.905 1.668-13.541 5.99-6.714 7.979-3.352 20.414 11.89 43.975 6.606 10.213 6.867 11.278 4.534 18.502-7.74 23.96-28.786 67.924-47.259 98.726-25.687 42.832-67.295 89.262-104.824 116.974-40.206 29.689-80.863 50.848-127.5 66.354-85.15 28.313-164.465 35.799-253.5 23.927-35.814-4.775-82.549-17.03-117-30.678-58.445-23.154-100.292-48.315-137.162-82.47-55.232-51.166-93.97-110.126-123.067-187.304-5.107-13.548-4.915-14.963 3.768-27.634 8.566-12.502 12.704-21.255 13.27-28.069.375-4.526.041-5.925-2.234-9.363-3.573-5.4-10.818-9.934-15.87-9.934-5.253 0-8.24 3.166-18.254 19.348-12.999 21.005-21.351 28.654-35.056 32.103-3.242.816-12.777 2.16-21.19 2.989-16.155 1.59-23.106 3.638-25.12 7.4-1.68 3.142-1.25 12.2.795 16.701 2.312 5.091 7.111 9.18 11.81 10.06 5.568 1.045 23.825-.337 33.31-2.522 8.266-1.904 8.544-1.907 10.088-.108.874 1.018 4.856 11.453 8.85 23.19 23.561 69.24 50.352 121.435 88.778 172.958 10.52 14.107 31.25 37.805 45.284 51.771 47.698 47.466 108.182 84.39 173.62 105.991 44.956 14.84 82.556 21.911 145.88 27.434 9.127.796 52.401.587 71-.343zM611.988 854.039c17.318-5.037 34.297-16.15 49.956-32.696 26.745-28.26 45.086-70.456 53.22-122.436 3.256-20.813 3.237-55.919-.041-77.407-6.64-43.512-20.431-76.135-44.031-104.153-10.9-12.94-28.735-25.496-44.286-31.178-6.914-2.526-8.271-2.668-25.306-2.653-17.747.017-18.134.063-27.5 3.31-34.767 12.052-63.164 42.398-82.513 88.174-7.625 18.038-12.332 35.126-16.225 58.894-2.518 15.377-2.72 18.79-2.736 46.106-.02 32.158.642 38.394 6.62 62.411 4.801 19.288 8.628 30.28 15.348 44.089 8.456 17.377 17.003 30.001 27.404 40.477 13.689 13.789 27.343 22.081 45.336 27.533 7.561 2.291 9.502 2.47 22.766 2.106 11.03-.303 16.292-.92 21.988-2.577zm690.512.064c31.152-7.71 55.272-29.704 73.818-67.31 21.614-43.827 28.368-94.457 20.11-150.756-5.264-35.879-14.768-62.86-31.893-90.537-16.955-27.404-31.694-41.766-54.45-53.06-14.986-7.436-19.913-8.724-35.283-9.221-20.793-.672-34.521 2.957-50.302 13.3-15.506 10.162-24.148 18.81-35.092 35.12-17.082 25.456-28.57 56.949-33.142 90.861-2.327 17.253-2.278 57.733.09 74.5 6.902 48.86 23.937 90.718 49.335 121.217 16.744 20.107 38.83 33.553 62.14 37.828 7.17 1.316 25.701.278 34.67-1.942z" transform="matrix(.01867 0 0 .01867 4.758 4.73)"/><path style="fill:#021119" d="M917 1841.377c-1.375-.179-14.2-.78-28.5-1.337-46.964-1.83-73.66-5.135-126-15.601-30.4-6.079-37.847-7.881-78-18.88-28.2-7.726-64.818-20.694-99.363-35.191-111.629-46.844-221.833-122.947-302.45-208.86-59.237-63.126-102.898-122.907-142.425-195.008-13.466-24.563-29.46-58.501-44.065-93.5-26.723-64.037-48.733-148.302-58.12-222.5-4.692-37.093-6.36-66.533-6.432-113.5-.107-70.784 3.792-112.168 16.488-175C68.51 661.155 105.6 564.33 157.305 477c25.275-42.69 67.49-100.13 105.098-143 27.74-31.622 72.955-74.13 112.729-105.984 24.306-19.465 69.025-50.42 96.368-66.704 44.094-26.263 100.068-53.432 147-71.352 33.798-12.905 84.962-27.886 127.5-37.331 37.063-8.23 101.546-16.911 138.5-18.646 26.483-1.243 80.204-1.215 104.407.054 48.035 2.519 117.497 13.144 163.957 25.08 55.93 14.369 105.569 31.182 143.636 48.651 16.703 7.666 66.502 32.568 81.852 40.931 31.094 16.942 69.538 42.565 104.538 69.674 33.883 26.245 52.323 42.197 80.14 69.327 47.99 46.805 85.902 92.369 127.143 152.8 23.982 35.142 36.42 56.406 55.257 94.469 50.251 101.54 80.754 208.225 90.502 316.531 5.933 65.93 5.247 130.71-2.033 192-2.144 18.052-7.556 51.33-10.952 67.349-1.126 5.308-2.507 12.126-3.071 15.151-4.178 22.426-20.611 81-30.838 109.918-12.471 35.264-29.484 76.026-42.956 102.92-13.7 27.347-34.855 64.466-48.822 85.662-39.61 60.116-76.906 106.303-122.74 152-20.757 20.694-54.216 51.012-72.52 65.71-56.23 45.154-120.673 85.4-181.618 113.423-40.787 18.754-51.934 23.31-84.882 34.694-70.873 24.488-140.043 39.821-212.5 47.108-24 2.413-96.877 5.123-106 3.941zm51.5-246.401c11.55-.562 26.625-1.695 33.5-2.519 99.573-11.925 175.13-40.867 247-94.611 29.832-22.308 69.158-61.91 91.206-91.846 35.997-48.875 62.487-101.432 85.683-170l7.611-22.5 3 .086c1.65.047 8.168.886 14.485 1.863 14.498 2.244 25.798 1.782 31.764-1.296 9.018-4.654 12.703-16.142 8.066-25.153-1.973-3.835-3.054-4.744-7.315-6.155-2.814-.93-11.559-2.108-20-2.692-16.802-1.163-24.743-3.16-31.758-7.987-7.467-5.137-15.498-14.888-23.196-28.166-8.364-14.426-11.199-17-18.726-17-5.995 0-10.43 1.808-14.152 5.767-7.647 8.138-4.618 20.099 11.814 46.649 3.035 4.903 5.518 9.705 5.518 10.67 0 2.795-5.449 17.486-13.601 36.67-11.926 28.064-30.318 62.03-46.156 85.244-18.508 27.126-46.71 59.508-69.605 79.924-32.168 28.684-79.37 57.889-122.138 75.57-26.356 10.895-73.603 24.392-106.5 30.422-39.286 7.202-55.148 8.562-100 8.574-35.667.01-38.197-.149-73-4.582-61.942-7.89-130.498-30.485-184-60.645-15.5-8.738-40.173-25.264-53-35.5-48.472-38.683-94.425-97.198-122.37-155.825-10.12-21.23-23.63-55.874-23.63-60.595 0-3.392 1.288-5.99 7.908-15.948 12.548-18.874 15.23-27.307 11.19-35.185-3.41-6.65-11.264-12.2-17.271-12.206-4.95 0-8.633 3.262-14.436 12.807-8.975 14.762-13.115 20.73-18.367 26.475-9.54 10.435-15.655 12.679-41.459 15.217-18.006 1.77-23.5 3.538-25.994 8.36-5.306 10.26 2.662 26 14.024 27.704 6.606.99 21.208-.187 31.867-2.57 7.174-1.603 9.207-1.753 10.196-.75.68.69 5.028 12.278 9.663 25.753 12.324 35.826 21.492 57.745 37.763 90.28 15.027 30.049 41.342 70.965 59.31 92.22 35.806 42.355 62.991 67.49 98.606 91.171 74.626 49.62 153.066 74.648 259 82.64 10.544.796 48.083.609 67.5-.335zM604.228 856.583c25.612-4.9 50.554-22.395 70.739-49.62 19.35-26.097 34.578-66.378 41.192-108.963 3.216-20.71 3.217-54.148.002-75.159-7.017-45.85-21.454-79.684-45.956-107.696-12.03-13.753-34.852-28.028-50.705-31.716-11.027-2.565-32.337-1.557-43.5 2.057-27.541 8.916-47.664 25.66-68.009 56.593-7.478 11.37-10.107 16.47-17.336 33.642-8.512 20.218-12.42 34.55-16.844 61.779-1.982 12.201-2.276 17.661-2.286 42.5-.014 31.671.686 37.858 7.184 63.5 6.745 26.617 15.312 46.783 28.04 66 14.58 22.012 34.143 37.187 57.75 44.795 4.4 1.418 8.9 2.78 10 3.026 4.602 1.029 22.863.576 29.729-.738zm698.89-1.941c25.766-6.59 44.56-20.804 62.335-47.142 11.157-16.532 24.79-49.28 29.43-70.692 9.906-45.723 6.978-99.768-7.846-144.808-12.992-39.474-38.24-76.527-63.105-92.613-9.74-6.3-24.684-13.15-33.75-15.468-5.206-1.332-10.933-1.919-18.714-1.919-19.541 0-37.184 5.887-53.014 17.69-18.157 13.538-28.785 27.025-41.83 53.082-11.645 23.262-18.324 45.984-21.818 74.228-1.916 15.484-1.604 53.506.565 69 7.324 52.3 25.93 96.226 53.982 127.445 15.03 16.727 37.912 29.682 59.307 33.576 7.887 1.436 23.854.333 34.459-2.379z" transform="matrix(.01867 0 0 .01867 4.758 4.73)"/></svg>
