<svg width="30pt" height="30pt" viewBox="0 0 45.156 45.156" xmlns="http://www.w3.org/2000/svg"><path style="fill:#eb6f9b" d="M917 1841.377c-1.375-.179-14.2-.78-28.5-1.337-46.964-1.83-73.66-5.135-126-15.601-30.4-6.079-37.847-7.881-78-18.88-28.2-7.726-64.818-20.694-99.363-35.191-111.629-46.844-221.833-122.947-302.45-208.86-59.237-63.126-102.898-122.907-142.425-195.008-13.466-24.563-29.46-58.501-44.065-93.5-26.723-64.037-48.733-148.302-58.12-222.5-4.692-37.093-6.36-66.533-6.432-113.5-.107-70.784 3.792-112.168 16.488-175C68.51 661.155 105.6 564.33 157.305 477c25.275-42.69 67.49-100.13 105.098-143 27.74-31.622 72.955-74.13 112.729-105.984 24.306-19.465 69.025-50.42 96.368-66.704 44.094-26.263 100.068-53.432 147-71.352 33.798-12.905 84.962-27.886 127.5-37.331 37.063-8.23 101.546-16.911 138.5-18.646 26.483-1.243 80.204-1.215 104.407.054 48.035 2.519 117.497 13.144 163.957 25.08 55.93 14.369 105.569 31.182 143.636 48.651 16.703 7.666 66.502 32.568 81.852 40.931 31.094 16.942 69.538 42.565 104.538 69.674 33.883 26.245 52.323 42.197 80.14 69.327 47.99 46.805 85.902 92.369 127.143 152.8 23.982 35.142 36.42 56.406 55.257 94.469 50.251 101.54 80.754 208.225 90.502 316.531 5.933 65.93 5.247 130.71-2.033 192-2.144 18.052-7.556 51.33-10.952 67.349-1.126 5.308-2.507 12.126-3.071 15.151-4.178 22.426-20.611 81-30.838 109.918-12.471 35.264-29.484 76.026-42.956 102.92-13.7 27.347-34.855 64.466-48.822 85.662-39.61 60.116-76.906 106.303-122.74 152-20.757 20.694-54.216 51.012-72.52 65.71-56.23 45.154-120.673 85.4-181.618 113.423-40.787 18.754-51.934 23.31-84.882 34.694-70.873 24.488-140.043 39.821-212.5 47.108-24 2.413-96.877 5.123-106 3.941zm51.5-246.401c11.55-.562 26.625-1.695 33.5-2.519 99.573-11.925 175.13-40.867 247-94.611 29.832-22.308 69.158-61.91 91.206-91.846 35.997-48.875 62.487-101.432 85.683-170l7.611-22.5 3 .086c1.65.047 8.168.886 14.485 1.863 14.498 2.244 25.798 1.782 31.764-1.296 9.018-4.654 12.703-16.142 8.066-25.153-1.973-3.835-3.054-4.744-7.315-6.155-2.814-.93-11.559-2.108-20-2.692-16.802-1.163-24.743-3.16-31.758-7.987-7.467-5.137-15.498-14.888-23.196-28.166-8.364-14.426-11.199-17-18.726-17-5.995 0-10.43 1.808-14.152 5.767-7.647 8.138-4.618 20.099 11.814 46.649 3.035 4.903 5.518 9.705 5.518 10.67 0 2.795-5.449 17.486-13.601 36.67-11.926 28.064-30.318 62.03-46.156 85.244-18.508 27.126-46.71 59.508-69.605 79.924-32.168 28.684-79.37 57.889-122.138 75.57-26.356 10.895-73.603 24.392-106.5 30.422-39.286 7.202-55.148 8.562-100 8.574-35.667.01-38.197-.149-73-4.582-61.942-7.89-130.498-30.485-184-60.645-15.5-8.738-40.173-25.264-53-35.5-48.472-38.683-94.425-97.198-122.37-155.825-10.12-21.23-23.63-55.874-23.63-60.595 0-3.392 1.288-5.99 7.908-15.948 12.548-18.874 15.23-27.307 11.19-35.185-3.41-6.65-11.264-12.2-17.271-12.206-4.95 0-8.633 3.262-14.436 12.807-8.975 14.762-13.115 20.73-18.367 26.475-9.54 10.435-15.655 12.679-41.459 15.217-18.006 1.77-23.5 3.538-25.994 8.36-5.306 10.26 2.662 26 14.024 27.704 6.606.99 21.208-.187 31.867-2.57 7.174-1.603 9.207-1.753 10.196-.75.68.69 5.028 12.278 9.663 25.753 12.324 35.826 21.492 57.745 37.763 90.28 15.027 30.049 41.342 70.965 59.31 92.22 35.806 42.355 62.991 67.49 98.606 91.171 74.626 49.62 153.066 74.648 259 82.64 10.544.796 48.083.609 67.5-.335zM604.228 856.583c25.612-4.9 50.554-22.395 70.739-49.62 19.35-26.097 34.578-66.378 41.192-108.963 3.216-20.71 3.217-54.148.002-75.159-7.017-45.85-21.454-79.684-45.956-107.696-12.03-13.753-34.852-28.028-50.705-31.716-11.027-2.565-32.337-1.557-43.5 2.057-27.541 8.916-47.664 25.66-68.009 56.593-7.478 11.37-10.107 16.47-17.336 33.642-8.512 20.218-12.42 34.55-16.844 61.779-1.982 12.201-2.276 17.661-2.286 42.5-.014 31.671.686 37.858 7.184 63.5 6.745 26.617 15.312 46.783 28.04 66 14.58 22.012 34.143 37.187 57.75 44.795 4.4 1.418 8.9 2.78 10 3.026 4.602 1.029 22.863.576 29.729-.738zm698.89-1.941c25.766-6.59 44.56-20.804 62.335-47.142 11.157-16.532 24.79-49.28 29.43-70.692 9.906-45.723 6.978-99.768-7.846-144.808-12.992-39.474-38.24-76.527-63.105-92.613-9.74-6.3-24.684-13.15-33.75-15.468-5.206-1.332-10.933-1.919-18.714-1.919-19.541 0-37.184 5.887-53.014 17.69-18.157 13.538-28.785 27.025-41.83 53.082-11.645 23.262-18.324 45.984-21.818 74.228-1.916 15.484-1.604 53.506.565 69 7.324 52.3 25.93 96.226 53.982 127.445 15.03 16.727 37.912 29.682 59.307 33.576 7.887 1.436 23.854.333 34.459-2.379z" transform="matrix(.01867 0 0 .01867 4.758 4.73)"/></svg>
