<?xml version="1.0" encoding="UTF-8" standalone="no"?>
<svg
   xmlns:dc="http://purl.org/dc/elements/1.1/"
   xmlns:cc="http://creativecommons.org/ns#"
   xmlns:rdf="http://www.w3.org/1999/02/22-rdf-syntax-ns#"
   xmlns:svg="http://www.w3.org/2000/svg"
   xmlns="http://www.w3.org/2000/svg"
   xmlns:sodipodi="http://sodipodi.sourceforge.net/DTD/sodipodi-0.dtd"
   xmlns:inkscape="http://www.inkscape.org/namespaces/inkscape"
   width="130"
   height="20"
   viewBox="0 0 130 20"
   fill="none"
   version="1.1"
   id="svg11"
   sodipodi:docname="nextchatTitle.svg"
   inkscape:version="0.92.5 (2060ec1f9f, 2020-04-08)">
  <metadata
     id="metadata15">
    <rdf:RDF>
      <cc:Work
         rdf:about="">
        <dc:format>image/svg+xml</dc:format>
        <dc:type
           rdf:resource="http://purl.org/dc/dcmitype/StillImage" />
      </cc:Work>
    </rdf:RDF>
  </metadata>
  <sodipodi:namedview
     pagecolor="#ffffff"
     bordercolor="#666666"
     borderopacity="1"
     objecttolerance="10"
     gridtolerance="10"
     guidetolerance="10"
     inkscape:pageopacity="0"
     inkscape:pageshadow="2"
     inkscape:window-width="1920"
     inkscape:window-height="1043"
     id="namedview13"
     showgrid="false"
     inkscape:zoom="3.5846154"
     inkscape:cx="14.924893"
     inkscape:cy="8.8841202"
     inkscape:window-x="1920"
     inkscape:window-y="0"
     inkscape:window-maximized="1"
     inkscape:current-layer="svg11" />
  <defs
     id="defs9">
    <linearGradient
       id="paint0_linear_454_19662"
       x1="0"
       y1="9.99998"
       x2="130.143"
       y2="9.99995"
       gradientUnits="userSpaceOnUse">
      <stop
         stop-color="#2A33FF"
         id="stop4" />
      <stop
         offset="0.997219"
         stop-color="#7963FF"
         id="stop6" />
    </linearGradient>
  </defs>
  <text
     xml:space="preserve"
     style="font-style:normal;font-variant:normal;font-weight:normal;font-stretch:normal;font-size:33.12525558px;line-height:1.25;font-family:Ubuntu;-inkscape-font-specification:Ubuntu;letter-spacing:0px;word-spacing:0px;fill:#000000;fill-opacity:1;stroke:none;stroke-width:0.82813138"
     x="3.0053337"
     y="6.6286049"
     id="text19"
     transform="scale(0.82813137,1.2075379)"><tspan
       sodipodi:role="line"
       id="tspan17"
       x="3.0053337"
       y="37.517647"
       style="font-style:normal;font-variant:normal;font-weight:normal;font-stretch:normal;font-size:15.45845222px;font-family:Ubuntu;-inkscape-font-specification:Ubuntu;stroke-width:0.82813138" /></text>
  <text
     xml:space="preserve"
     style="font-style:normal;font-variant:normal;font-weight:normal;font-stretch:normal;font-size:19.20065689px;line-height:1.25;font-family:Ubuntu;-inkscape-font-specification:Ubuntu;letter-spacing:0px;word-spacing:0px;fill:#eb6f9b;fill-opacity:1;stroke:none;stroke-width:1.02860653"
     x="-0.40451881"
     y="17.367119"
     id="text23"
     transform="scale(1.0286067,0.97218892)"><tspan
       sodipodi:role="line"
       id="tspan21"
       x="-0.40451881"
       y="17.367119"
       style="font-style:normal;font-variant:normal;font-weight:500;font-stretch:normal;font-family:Ubuntu;-inkscape-font-specification:'Ubuntu Medium';fill:#eb6f9b;fill-opacity:1;stroke-width:1.02860653">Nico Chat</tspan></text>
  <flowRoot
     xml:space="preserve"
     id="flowRoot25"
     style="font-style:normal;font-weight:normal;font-size:18.66666603px;line-height:1.25;font-family:sans-serif;letter-spacing:0px;word-spacing:0px;fill:#000000;fill-opacity:1;stroke:none"
     transform="matrix(0.68580157,0,0,1,0.38431272,0)"><flowRegion
       id="flowRegion27"><rect
         id="rect29"
         width="135.57941"
         height="63.047211"
         x="-14.785408"
         y="-15.429185" /></flowRegion><flowPara
       id="flowPara31" /></flowRoot>  <path
     inkscape:connector-curvature="0"
     style="fill:#eb6f9b;stroke-width:0.01016743"
     d="m 106.65676,19.086011 c -0.0137,-0.0018 -0.14106,-0.0081 -0.28311,-0.01391 -0.46652,-0.01905 -0.7317,-0.05344 -1.25163,-0.162356 -0.30198,-0.06326 -0.37595,-0.08202 -0.77481,-0.196481 -0.28012,-0.0804 -0.64387,-0.215358 -0.98703,-0.366227 -1.10886,-0.487502 -2.20359,-1.279494 -3.0044,-2.173574 -0.58842,-0.656942 -1.02214,-1.279072 -1.41478,-2.029415 -0.13377,-0.255622 -0.29265,-0.60881 -0.43772,-0.973038 -0.26545,-0.666422 -0.48409,-1.543353 -0.57734,-2.315518 -0.0465,-0.38602 -0.0632,-0.692398 -0.0639,-1.181175 -8.3e-4,-0.736637 0.0377,-1.167313 0.16378,-1.8211953 0.20241,-1.049476 0.57085,-2.0571173 1.08446,-2.9659451 0.25107,-0.4442673 0.67042,-1.0420357 1.044,-1.4881762 0.27555,-0.3290847 0.72469,-0.7714578 1.11979,-1.1029571 0.24146,-0.2025691 0.68567,-0.524712 0.95729,-0.6941769 0.43801,-0.2733142 0.99402,-0.5560574 1.46022,-0.74254814 0.33574,-0.1342999 0.84398,-0.2902047 1.26652,-0.3884971 0.36818,-0.085648 1.00873,-0.1759894 1.3758,-0.1940453 0.26307,-0.012936 0.79671,-0.012645 1.03713,5.822e-4 0.47716,0.026216 1.16717,0.1367876 1.62867,0.2610034 0.55559,0.1495357 1.04868,0.3245057 1.42682,0.50630264 0.16592,0.079778 0.66061,0.3389295 0.81307,0.4259617 0.30888,0.1763124 0.69077,0.4429666 1.03845,0.7250851 0.33657,0.2731276 0.51975,0.439137 0.79607,0.7214742 0.4767,0.4870913 0.85331,0.961268 1.26299,1.5901628 0.23823,0.3657167 0.36176,0.5870073 0.54889,0.9831227 0.49917,1.0567087 0.80217,2.166961 0.89901,3.2940824 0.0588,0.686124 0.0521,1.360277 -0.0202,1.998111 -0.0213,0.187864 -0.075,0.534182 -0.10879,0.700889 -0.0111,0.05524 -0.0249,0.126194 -0.0306,0.157674 -0.0415,0.233384 -0.20474,0.842953 -0.30633,1.143898 -0.12389,0.366986 -0.29288,0.791189 -0.42672,1.07107 -0.13607,0.284596 -0.34622,0.670887 -0.48496,0.89147 -0.39347,0.625617 -0.76395,1.106277 -1.21925,1.581837 -0.20619,0.215359 -0.53855,0.530873 -0.72037,0.683833 -0.55857,0.46991 -1.19871,0.888743 -1.80411,1.180373 -0.40517,0.19517 -0.51589,0.242582 -0.84317,0.361054 -0.70403,0.254842 -1.39114,0.414411 -2.11089,0.490245 -0.23841,0.02511 -0.96232,0.05331 -1.05295,0.04101 z m 0.51157,-2.56425 c 0.11475,-0.0059 0.26449,-0.01763 0.33279,-0.02622 0.9891,-0.124101 1.73964,-0.425295 2.45357,-0.984599 0.29634,-0.232157 0.68698,-0.644287 0.906,-0.955827 0.35758,-0.508632 0.62072,-1.055583 0.85113,-1.769159 l 0.0756,-0.234155 0.0298,9e-4 c 0.0164,4.88e-4 0.0811,0.0092 0.14388,0.01939 0.14401,0.02335 0.25627,0.01855 0.31552,-0.01349 0.0896,-0.04843 0.1262,-0.167988 0.0801,-0.261763 -0.0196,-0.03991 -0.0303,-0.04937 -0.0726,-0.06405 -0.028,-0.0097 -0.11482,-0.02193 -0.19866,-0.02802 -0.16691,-0.0121 -0.24579,-0.03289 -0.31548,-0.08312 -0.0741,-0.05346 -0.15393,-0.154936 -0.23041,-0.293118 -0.0831,-0.15013 -0.11124,-0.176915 -0.18602,-0.176915 -0.0596,0 -0.1036,0.01882 -0.14057,0.06001 -0.0761,0.08469 -0.0458,0.209167 0.11735,0.485468 0.0301,0.05102 0.0547,0.100998 0.0547,0.111041 0,0.02908 -0.0542,0.181973 -0.13512,0.381618 -0.11847,0.292057 -0.30116,0.645535 -0.45849,0.88712 -0.18385,0.282295 -0.46399,0.619289 -0.69142,0.831755 -0.31953,0.298508 -0.78843,0.602441 -1.21325,0.786443 -0.26181,0.113382 -0.73116,0.253843 -1.05793,0.316597 -0.39025,0.07495 -0.54783,0.08911 -0.99335,0.08923 -0.3543,1.03e-4 -0.37944,-0.0016 -0.72515,-0.04768 -0.61531,-0.08211 -1.29632,-0.317255 -1.82777,-0.631123 -0.15397,-0.09093 -0.39907,-0.262919 -0.52648,-0.369444 -0.48151,-0.402565 -0.93797,-1.011522 -1.21557,-1.621643 -0.10052,-0.220937 -0.23473,-0.581471 -0.23473,-0.6306 0,-0.0353 0.0128,-0.06234 0.0785,-0.16597 0.12464,-0.196416 0.15129,-0.284179 0.11116,-0.366164 -0.034,-0.06921 -0.1119,-0.126963 -0.17157,-0.127024 -0.0492,0 -0.0858,0.03395 -0.14339,0.133279 -0.0891,0.153625 -0.13029,0.215734 -0.18246,0.275522 -0.0947,0.108595 -0.15551,0.131948 -0.41183,0.158359 -0.17888,0.01842 -0.23344,0.03683 -0.25822,0.087 -0.0527,0.106774 0.0265,0.270578 0.13931,0.288311 0.0655,0.0103 0.21068,-0.0019 0.31656,-0.02674 0.0713,-0.01669 0.0914,-0.01825 0.10124,-0.0078 0.007,0.0072 0.0499,0.127775 0.096,0.268008 0.12243,0.372833 0.21348,0.600942 0.37511,0.939528 0.14928,0.312714 0.41069,0.73852 0.58916,0.959717 0.35569,0.440781 0.62574,0.702356 0.97952,0.948801 0.7413,0.516387 1.52049,0.776848 2.57277,0.86002 0.10475,0.0083 0.47765,0.0063 0.67052,-0.0035 z m -3.61851,-7.684327 c 0.25442,-0.051 0.50219,-0.233061 0.7027,-0.516387 0.19221,-0.2715879 0.34347,-0.6907847 0.40918,-1.13396 0.0319,-0.2155244 0.0319,-0.5635082 2e-5,-0.7821659 -0.0698,-0.4771537 -0.21311,-0.829258 -0.45651,-1.1207735 -0.1195,-0.1431258 -0.3462,-0.2916826 -0.50368,-0.3300634 -0.10954,-0.026696 -0.32123,-0.016199 -0.4321,0.021406 -0.27358,0.092786 -0.47348,0.2670393 -0.67557,0.5889533 -0.0743,0.1183253 -0.10042,0.1714005 -0.17221,0.3501061 -0.0846,0.2104056 -0.12338,0.3595565 -0.16733,0.6429238 -0.0197,0.1269731 -0.0225,0.1837949 -0.0227,0.44229 -1.4e-4,0.3295942 0.007,0.3939813 0.0714,0.6608331 0.0671,0.2769985 0.15211,0.4868632 0.27854,0.6868515 0.14483,0.229074 0.33916,0.386998 0.57366,0.466173 0.0438,0.01476 0.0884,0.02893 0.0993,0.03149 0.0457,0.01071 0.22711,0.006 0.29531,-0.0077 z m 6.94246,-0.0202 c 0.25595,-0.06858 0.44264,-0.216504 0.6192,-0.490599 0.11083,-0.1720456 0.24626,-0.5128488 0.29235,-0.7356794 0.0984,-0.4758313 0.0694,-1.0382688 -0.078,-1.5069921 -0.12906,-0.4107987 -0.37986,-0.7964028 -0.62686,-0.9638075 -0.0968,-0.06556 -0.24519,-0.136849 -0.33525,-0.1609726 -0.0517,-0.013858 -0.10861,-0.019974 -0.18591,-0.019974 -0.1941,0 -0.36935,0.061262 -0.52659,0.1840972 -0.18038,0.140887 -0.28595,0.2812439 -0.41553,0.5524147 -0.11568,0.2420835 -0.18202,0.4785477 -0.21673,0.7724784 -0.019,0.1611389 -0.016,0.5568273 0.006,0.7180708 0.0728,0.5442766 0.25757,1.0014068 0.53624,1.3262975 0.14929,0.174075 0.37659,0.308896 0.58912,0.34942 0.0783,0.01494 0.23695,0.0035 0.3423,-0.02476 z"
     id="path2" />
</svg>
